<svg width="14" height="14" viewBox="0 0 14 14" fill="none" xmlns="http://www.w3.org/2000/svg">
<path d="M7 0.25C3.274 0.25 0.25 3.274 0.25 7C0.25 10.726 3.274 13.75 7 13.75C10.726 13.75 13.75 10.726 13.75 7C13.75 3.274 10.726 0.25 7 0.25ZM7.95175 11.1108V11.5023C7.95175 11.995 7.54675 12.4 7.054 12.4H7.04725C6.5545 12.4 6.1495 11.995 6.1495 11.5023V11.0972C5.25175 10.9082 4.45525 10.4155 4.11775 9.58525C3.9625 9.214 4.25275 8.80225 4.65775 8.80225H4.81975C5.0695 8.80225 5.272 8.971 5.3665 9.20725C5.56225 9.7135 6.07525 10.0645 7.06075 10.0645C8.38375 10.0645 8.68075 9.403 8.68075 8.99125C8.68075 8.431 8.38375 7.9045 6.8785 7.54675C5.2045 7.14175 4.057 6.45325 4.057 5.0695C4.057 3.9085 4.99525 3.1525 6.15625 2.90275V2.49775C6.15625 2.005 6.56125 1.6 7.054 1.6H7.06075C7.5535 1.6 7.9585 2.005 7.9585 2.49775V2.91625C8.89 3.14575 9.47725 3.72625 9.73375 4.44175C9.86875 4.813 9.58525 5.2045 9.187 5.2045H9.0115C8.76175 5.2045 8.55925 5.029 8.49175 4.786C8.3365 4.273 7.91125 3.94225 7.06075 3.94225C6.04825 3.94225 5.44075 4.40125 5.44075 5.04925C5.44075 5.61625 5.8795 5.9875 7.243 6.3385C8.6065 6.6895 10.0645 7.27675 10.0645 8.97775C10.051 10.213 9.12625 10.888 7.95175 11.1108V11.1108Z" fill="#717171"/>
</svg>
