<svg width="15" height="16" viewBox="0 0 15 16" fill="none" xmlns="http://www.w3.org/2000/svg">
<path fill-rule="evenodd" clip-rule="evenodd" d="M12.1407 2.07886V4.89428L13.6235 6.32149C13.8805 6.55546 13.719 7 13.3813 7H12.4196C12.3627 7 12.3057 6.99267 12.25 6.97826V12C12.25 12.5523 11.8023 13 11.25 13H2.75C2.19772 13 1.75 12.5523 1.75 12V6.97865C1.69393 6.9928 1.6359 7 1.57712 7H0.615467C0.277787 7 0.123628 6.55546 0.373218 6.32149L6.5102 0.448873C6.78915 0.183709 7.21493 0.183709 7.49388 0.448873L9.93839 2.78856V2.07886C9.93839 1.64991 10.2687 1.29896 10.6725 1.29896H11.4066C11.8103 1.29896 12.1407 1.64991 12.1407 2.07886ZM1 13.75C0.585787 13.75 0.25 14.0858 0.25 14.5C0.25 14.9142 0.585786 15.25 1 15.25H13.75C14.1642 15.25 14.5 14.9142 14.5 14.5C14.5 14.0858 14.1642 13.75 13.75 13.75H1ZM6 7.75C5.72386 7.75 5.5 7.97386 5.5 8.25V11.75C5.5 12.0261 5.72386 12.25 6 12.25H8C8.27614 12.25 8.5 12.0261 8.5 11.75V8.25C8.5 7.97386 8.27614 7.75 8 7.75H6Z" fill="#B0B0B0"/>
</svg>
