<svg width="54" height="54" viewBox="0 0 54 54" fill="none" xmlns="http://www.w3.org/2000/svg">
<rect width="54" height="54" rx="27" fill="#E5F8FA"/>
<path d="M44 29.2108H30.5788V38.9478C30.5788 39.5 31.0265 39.9478 31.5788 39.9478H43C43.5523 39.9478 44 39.5001 44 38.9478V29.2108Z" fill="#0998A2"/>
<rect width="1.78949" height="1.78949" transform="matrix(-1 0 0 1 42.2107 27.4214)" fill="#4EC8D0"/>
<path d="M44 28.4214C44 27.8691 43.5523 27.4214 43 27.4214H30.5788V29.2109H44V28.4214Z" fill="#4EC8D0"/>
<path d="M44 28.4214C44 27.8691 43.5523 27.4214 43 27.4214H30.5788V29.2109H44V28.4214Z" fill="#4EC8D0"/>
<path d="M31.4736 16.2369L11.7892 22.9475V38.9477C11.7892 39.5 12.2369 39.9477 12.7892 39.9477H31.4736V16.2369Z" fill="#00B2BE"/>
<path d="M33.2634 15.1874C33.2634 14.6062 32.6906 14.1983 32.1413 14.3884L10.569 21.8558C10.2284 21.9737 10 22.2944 10 22.6548V22.6548C10 23.236 10.5729 23.6439 11.1221 23.4538L32.6945 15.9864C33.035 15.8686 33.2634 15.5478 33.2634 15.1874V15.1874Z" fill="#4EC8D0"/>
<circle r="2.68424" transform="matrix(-1 0 0 1 21.6312 24.7368)" fill="#B8FBFF"/>
<path d="M24.3154 32.895C24.3154 32.3427 23.8677 31.895 23.3154 31.895H19.947C19.3947 31.895 18.947 32.3427 18.947 32.895V38.053H24.3154V32.895Z" fill="#B8FBFF"/>
<path d="M41.3154 33.7897C41.3154 33.2374 40.8677 32.7897 40.3154 32.7897H35.1575C34.6052 32.7897 34.1575 33.2374 34.1575 33.7897V35.3687C34.1575 35.9209 34.6052 36.3687 35.1575 36.3687H40.3154C40.8677 36.3687 41.3154 35.9209 41.3154 35.3687V33.7897Z" fill="#14C2CC"/>
<path d="M41.3154 33.7897C41.3154 33.2374 40.8677 32.7897 40.3154 32.7897H35.1575C34.6052 32.7897 34.1575 33.2374 34.1575 33.7897V35.3687C34.1575 35.9209 34.6052 36.3687 35.1575 36.3687H40.3154C40.8677 36.3687 41.3154 35.9209 41.3154 35.3687V33.7897Z" fill="#B8FBFF"/>
</svg>
