<svg width="54" height="54" viewBox="0 0 54 54" fill="none" xmlns="http://www.w3.org/2000/svg">
<rect width="54" height="54" rx="27" fill="#E4F1FF"/>
<path d="M30.5715 27.5714C30.5715 27.0191 31.0192 26.5714 31.5715 26.5714H43.2858C43.8381 26.5714 44.2858 27.0191 44.2858 27.5714V36.7143C44.2858 37.2666 43.8381 37.7143 43.2858 37.7143H31.5715C31.0192 37.7143 30.5715 37.2666 30.5715 36.7143V27.5714Z" fill="#4F86FF"/>
<path d="M30.5715 27.0714C30.5715 26.7953 30.7954 26.5714 31.0715 26.5714H43.7858C44.062 26.5714 44.2858 26.7953 44.2858 27.0714V37.6428C44.2858 37.919 44.062 38.1428 43.7858 38.1428H31.0715C30.7954 38.1428 30.5715 37.919 30.5715 37.6428V27.0714Z" fill="#104FD9"/>
<path d="M12.5715 19.7856C12.5715 19.5095 12.7954 19.2856 13.0715 19.2856H15.5001C15.7762 19.2856 16.0001 19.5095 16.0001 19.7856V24.7856C16.0001 25.0618 15.7762 25.2856 15.5001 25.2856H13.0715C12.7954 25.2856 12.5715 25.0618 12.5715 24.7856V19.7856Z" fill="#4F86FF"/>
<path d="M23.5166 18.8145C23.252 18.4876 23.4846 17.9999 23.9052 17.9999H35.949C36.0737 17.9999 36.194 18.0465 36.2861 18.1306L45.048 26.1306C45.3851 26.4384 45.1674 26.9999 44.7109 26.9999H30.3814C30.2305 26.9999 30.0877 26.9317 29.9928 26.8145L23.5166 18.8145Z" fill="url(#paint0_linear_1139_13103)"/>
<path d="M23.5166 18.8145C23.252 18.4876 23.4846 17.9999 23.9052 17.9999H35.949C36.0737 17.9999 36.194 18.0465 36.2861 18.1306L45.048 26.1306C45.3851 26.4384 45.1674 26.9999 44.7109 26.9999H30.3814C30.2305 26.9999 30.0877 26.9317 29.9928 26.8145L23.5166 18.8145Z" fill="#3571FF"/>
<path d="M10 27.3927C10 27.1403 10.0955 26.8972 10.2672 26.7122L20.4101 15.7892C20.8057 15.3631 21.48 15.3631 21.8757 15.7892L32.0185 26.7122C32.1903 26.8972 32.2857 27.1403 32.2857 27.3927V37.1429C32.2857 37.6951 31.838 38.1429 31.2857 38.1429H11C10.4477 38.1429 10 37.6951 10 37.1429V27.3927Z" fill="#4F86FF"/>
<path d="M17.7144 34.2857C17.7144 32.3922 19.2494 30.8572 21.1429 30.8572C23.0365 30.8572 24.5715 32.3922 24.5715 34.2857V36.8572H17.7144V34.2857Z" fill="#E4F1FF"/>
<rect x="17.7144" y="25.7142" width="6.85714" height="2.57143" rx="1" fill="#E4F1FF"/>
<rect x="35.7144" y="31.2856" width="6" height="4.28571" rx="1" fill="#4F86FF"/>
<path d="M35.7144 34.7142H41.7144V35.5714H35.7144V34.7142Z" fill="#BEDCFF"/>
<defs>
<linearGradient id="paint0_linear_1139_13103" x1="45.2768" y1="24.3332" x2="27.1965" y2="24.3332" gradientUnits="userSpaceOnUse">
<stop stop-color="#719DFF"/>
<stop offset="1" stop-color="#3D62E8"/>
</linearGradient>
</defs>
</svg>
