<svg width="28" height="28" viewBox="0 0 28 28" fill="none" xmlns="http://www.w3.org/2000/svg">
<path d="M14.0001 25.5825C15.2834 25.5825 16.3334 24.5359 16.3334 23.2568H11.6667C11.6667 24.5359 12.7051 25.5825 14.0001 25.5825ZM21.0001 18.6055V12.7912C21.0001 9.22133 19.0867 6.23283 15.7501 5.4421V4.65137C15.7501 3.68621 14.9684 2.9071 14.0001 2.9071C13.0317 2.9071 12.2501 3.68621 12.2501 4.65137V5.4421C8.90173 6.23283 7.00006 9.2097 7.00006 12.7912V18.6055L5.49506 20.1055C4.76006 20.8381 5.27339 22.094 6.31173 22.094H21.6767C22.7151 22.094 23.2401 20.8381 22.5051 20.1055L21.0001 18.6055Z" fill="#9A9A9A"/>
</svg>
